<?xml version="1.0" encoding="utf-8"?>
<!-- Generator: Adobe Illustrator 17.0.0, SVG Export Plug-In . SVG Version: 6.00 Build 0)  -->
<!DOCTYPE svg PUBLIC "-//W3C//DTD SVG 1.1//EN" "http://www.w3.org/Graphics/SVG/1.1/DTD/svg11.dtd">
<svg version="1.1"
	 id="svg2" xmlns:dc="http://purl.org/dc/elements/1.1/" xmlns:cc="http://creativecommons.org/ns#" xmlns:rdf="http://www.w3.org/1999/02/22-rdf-syntax-ns#" xmlns:svg="http://www.w3.org/2000/svg"
	 xmlns="http://www.w3.org/2000/svg" xmlns:xlink="http://www.w3.org/1999/xlink" x="0px" y="0px" width="1000px" height="1000px"
	 viewBox="0 0 1000 1000" enable-background="new 0 0 1000 1000" xml:space="preserve">
<path fill="#021F59" d="M444.709,54.89c0,1.589,0,3.176,0.29,4.91l0,0C301.204,85.513,191.937,209.877,191.937,359.234l0,0v304.201
	h-64.251c-11.365,0-20.541,9.096-20.541,20.364l0,0v108.334c0,11.266,9.176,20.369,20.541,20.369l0,0h744.622
	c11.365,0,20.541-9.101,20.541-20.369l0,0V683.799c0.291-11.265-9.031-20.364-20.25-20.364l0,0H808.35V359.234
	c0-149.356-108.976-273.721-252.919-299.434l0,0c0.29-1.59,0.29-3.179,0.29-4.91l0,0c0-30.191-24.769-54.89-55.509-54.89l0,0
	C469.474,0,444.709,24.558,444.709,54.89 M389.999,875c0,69.175,56.264,125,125.715,125l0,0c69.449,0,125.714-55.825,125.714-125
	l0,0H389.999z"/>
</svg>
