<?xml version="1.0" encoding="utf-8"?>
<!-- Generator: Adobe Illustrator 17.0.0, SVG Export Plug-In . SVG Version: 6.00 Build 0)  -->
<!DOCTYPE svg PUBLIC "-//W3C//DTD SVG 1.1//EN" "http://www.w3.org/Graphics/SVG/1.1/DTD/svg11.dtd">
<svg version="1.1" id="Layer_1" xmlns="http://www.w3.org/2000/svg" xmlns:xlink="http://www.w3.org/1999/xlink" x="0px" y="0px"
	 width="1000px" height="1000px" viewBox="0 0 1000 1000" enable-background="new 0 0 1000 1000" xml:space="preserve">
<title>post-instagram</title>
<desc>Created with Sketch.</desc>
<g id="Symbols">
	<g id="MENù" transform="translate(-1402.000000, -15.000000)">
		<g id="post-instagram" transform="translate(1402.000000, 15.000000)">
			<path id="Shape" fill="#021F59" d="M900,0H100C45,0,0,45,0,100v800c0,55,45,100,100,100h800c55,0,100-45,100-100V100
				C1000,45,955,0,900,0L900,0z M500,300c110,0,200,90,200,200s-90,200-200,200s-200-90-200-200S390,300,500,300L500,300z M125,900
				c-15,0-25-10-25-25V450h105c-5,15-5,35-5,50c0,165,135,300,300,300s300-135,300-300c0-15,0-35-5-50h105v425c0,15-10,25-25,25H125
				L125,900z M900,225c0,15-10,25-25,25H775c-15,0-25-10-25-25V125c0-15,10-25,25-25h100c15,0,25,10,25,25V225L900,225z"/>
		</g>
	</g>
</g>
</svg>
