<?xml version="1.0" encoding="utf-8"?>
<!-- Generator: Adobe Illustrator 17.0.0, SVG Export Plug-In . SVG Version: 6.00 Build 0)  -->
<!DOCTYPE svg PUBLIC "-//W3C//DTD SVG 1.1//EN" "http://www.w3.org/Graphics/SVG/1.1/DTD/svg11.dtd">
<svg version="1.1" id="Layer_1" xmlns="http://www.w3.org/2000/svg" xmlns:xlink="http://www.w3.org/1999/xlink" x="0px" y="0px"
	 width="1000px" height="1000px" viewBox="0 0 1000 1000" enable-background="new 0 0 1000 1000" xml:space="preserve">
<path fill="#021F59" d="M500,0C223.865,0,0,223.865,0,500c0,276.136,223.865,500,500,500c276.136,0,500-223.864,500-500
	C1000,223.839,776.136,0,500,0z M547.974,774.892c-14.081,12.486-31.649,18.756-52.703,18.756c-21.054,0-38.594-6.242-52.703-18.756
	c-14.081-12.487-21.108-28.487-21.108-47.974c0-19.459,7.027-35.432,21.108-47.919c14.081-12.486,31.649-18.782,52.703-18.782
	c21.054,0,38.594,6.27,52.703,18.782c14.081,12.487,21.108,28.487,21.108,47.919C569.082,746.406,562.055,762.379,547.974,774.892z
	 M672.865,422.243c-8.702,17.893-22.675,36.163-41.837,54.866l-45.405,42.243c-12.892,12.352-21.865,25.054-26.865,38.055
	c-5,13.027-7.756,29.541-8.269,49.541H437.648c0-38.406,4.325-68.731,13-91c8.703-22.217,22.756-41.487,42.243-57.812
	c19.46-16.324,34.27-31.243,44.406-44.783c10.109-13.54,15.163-28.487,15.163-44.783c0-39.731-17.082-59.621-51.298-59.621
	c-15.783,0-28.541,5.81-38.271,17.35c-9.757,11.595-14.865,27.271-15.406,46.974H314.082c0.539-52.622,17.134-93.595,49.757-122.946
	c32.621-29.351,78.405-44,137.324-44c58.675,0,104.134,13.54,136.377,40.676c32.217,27.08,48.325,65.621,48.325,115.62
	C685.865,384.487,681.542,404.325,672.865,422.243z"/>
</svg>
