<svg id="Livello_1" data-name="Livello 1" xmlns="http://www.w3.org/2000/svg" viewBox="0 0 137.35 50.94"><defs><style>.cls-1{fill:#222155;}.cls-2{fill:#4eb1e4;}.cls-3{fill:#97c592;}.cls-4{fill:#6f2e80;}.cls-5{fill:#3a74b7;}</style></defs><title>Marchio Ti anticipo_ Positivo_CMYK</title><path class="cls-1" d="M58.88,43.31v-11h-2v-.5A6.34,6.34,0,0,0,61,27.65h.7v3.5h4.09l-.29,1.2h-3.8V43c0,1.25.61,1.81,1.93,1.81a8.22,8.22,0,0,0,2.28-.38V45a6.09,6.09,0,0,1-3.77,1.34c-1.81,0-3.3-.84-3.3-3.06" transform="translate(-56.86 -23.83)"/><path class="cls-1" d="M68,45.53l1.17-.32c.55-.15.76-.38.76-1.52V33.9c0-1.17-.15-1.23-.85-1.58L68,31.77v-.41l4.7-.61.21.12s-.12,1.25-.12,2.75V43.69c0,1.23.17,1.37.76,1.52l1.17.32V46H68Zm1.49-18.8a1.75,1.75,0,0,1,3.5,0,1.75,1.75,0,0,1-3.5,0" transform="translate(-56.86 -23.83)"/><path class="cls-2" d="M77.23,42.49c0-2.51,1.55-3.83,5.81-4.82l2.69-.59V34.72c0-2.25-.38-2.86-2.4-2.86-1.08,0-1.23.23-1.31,1.11-.15,1.61-.73,2.37-2.22,2.37-1.28,0-1.81-.67-1.81-1.7,0-2,2.71-3.09,6.22-3.09s5.58,1.2,5.58,3.94v8.06c0,1,.17,1.4.76,1.69a3.47,3.47,0,0,0,1.43.26v1a5.82,5.82,0,0,1-3.15.87c-1.66,0-2.63-.67-2.89-1.75h-.12a5.2,5.2,0,0,1-4.09,1.78c-2.77,0-4.5-1.43-4.5-3.91m8.5.79V38.75L84,38.9c-1.87.17-2.77.91-2.77,3,0,1.84.91,2.39,2.31,2.39a2.43,2.43,0,0,0,2.19-1.05" transform="translate(-56.86 -23.83)"/><path class="cls-2" d="M93.56,45l1-.23c.85-.23,1-.41,1-1.61V34.49c0-1.2-.12-1.28-.93-1.75l-1.08-.61v-.88l5.66-.67.38.23-.17,1.75h.12a10.64,10.64,0,0,1,5.69-2c2.74,0,4,1.29,4,3.91v8.67c0,1.23.18,1.4,1,1.61l.94.23V46h-7.77V45l.93-.23c.76-.18.88-.29.88-1.61V35.6c0-1.9-.67-2.57-2.28-2.57a11.26,11.26,0,0,0-3.27.67v9.43c0,1.31.12,1.43.88,1.61l.93.23V46H93.56Z" transform="translate(-56.86 -23.83)"/><path class="cls-2" d="M114.47,42.72V32.85h-2v-1c2.22-.67,3.45-2.31,4.26-4.76h1.72V31h4.15l-.47,1.87H118.5v9.43c0,1.37.55,1.93,2,1.93a11.45,11.45,0,0,0,2.22-.32V45a6.27,6.27,0,0,1-4.38,1.4c-2.36,0-3.88-1-3.88-3.65" transform="translate(-56.86 -23.83)"/><path class="cls-2" d="M124.28,45l1-.23c.85-.23,1-.41,1-1.61V34.49c0-1.2-.12-1.28-.93-1.75l-1.08-.61v-.88l5.93-.67.38.23a34.09,34.09,0,0,0-.23,3.85v8.47c0,1.29.15,1.4.93,1.61l1,.23V46h-7.91Zm1.34-18.81a2.5,2.5,0,1,1,2.51,2.31,2.39,2.39,0,0,1-2.51-2.31" transform="translate(-56.86 -23.83)"/><path class="cls-2" d="M134.21,38.66c0-6.19,4.85-8.12,8.82-8.12,2.92,0,4.53.93,4.53,2.63a2.13,2.13,0,0,1-2,2.19c-1.43,0-1.84-.91-2-2S143.2,32,142.21,32c-2,0-3.88,1.2-3.88,5.46s1.64,6.6,5,6.6a8.84,8.84,0,0,0,4.29-1.2V44.1a8.55,8.55,0,0,1-6.1,2.28c-4.73,0-7.27-3.09-7.27-7.71" transform="translate(-56.86 -23.83)"/><path class="cls-2" d="M149.74,45l1-.23c.85-.23,1-.41,1-1.61V34.49c0-1.2-.12-1.28-.93-1.75l-1.08-.61v-.88l5.93-.67.38.23a33.72,33.72,0,0,0-.23,3.85v8.47c0,1.29.14,1.4.93,1.61l1,.23V46h-7.91Zm1.34-18.81a2.5,2.5,0,1,1,2.51,2.31,2.38,2.38,0,0,1-2.51-2.31" transform="translate(-56.86 -23.83)"/><path class="cls-2" d="M159.38,51.39l1-.26c.88-.21,1-.38,1-1.61v-15c0-1.2-.12-1.28-.93-1.75l-1.08-.61v-.88l5.67-.67.38.23-.18,1.67h.15a8.26,8.26,0,0,1,5.11-1.93c2.83,0,5.9,1.78,5.9,7.18,0,5.87-3.53,8.64-8.61,8.64a10.22,10.22,0,0,1-2.45-.32,13.6,13.6,0,0,1,.12,1.81v1.66c0,1.28.12,1.43.91,1.61l1.28.26v1h-8.21Zm12.76-12.82c0-4-1.43-5.67-4-5.67a5.82,5.82,0,0,0-2.77.79V43.86A3.37,3.37,0,0,0,168,44.91c2.77,0,4.18-1.34,4.18-6.34" transform="translate(-56.86 -23.83)"/><path class="cls-2" d="M178.49,38.52c0-5.43,3.86-8,7.86-8,4.26,0,7.83,2.54,7.83,7.8,0,5.43-3.83,8.06-7.83,8.06-4.29,0-7.86-2.63-7.86-7.88m11.39.06c0-5.29-1.29-6.63-3.65-6.63-2.19,0-3.45,1.46-3.45,6.22,0,5.31,1.2,6.8,3.65,6.8,2.13,0,3.45-1.4,3.45-6.4" transform="translate(-56.86 -23.83)"/><rect class="cls-2" x="169.15" y="59.64" width="4.32" height="4.32" transform="translate(-50.34 115.51) rotate(-45.04)"/><path class="cls-3" d="M184.3,71.72h0l-3.06-3.05,3.05-3.06a4.32,4.32,0,0,1,0,6.11" transform="translate(-56.86 -23.83)"/><rect class="cls-2" x="189.01" y="59.63" width="4.32" height="4.32" transform="translate(-44.55 129.47) rotate(-45.01)"/><path class="cls-3" d="M181.23,54.92,178.18,58a4.32,4.32,0,0,1,0-6.11Z" transform="translate(-56.86 -23.83)"/><rect class="cls-2" x="179.08" y="69.56" width="4.32" height="4.32" transform="translate(-54.47 125.39) rotate(-45.02)"/><path class="cls-3" d="M185.06,58.74h0a4.32,4.32,0,0,1,6.11,0l-3.05,3.05Z" transform="translate(-56.86 -23.83)"/><rect class="cls-4" x="179.08" y="55.81" width="4.32" height="4.32" transform="translate(-44.73 121.38) rotate(-45.03)"/><path class="cls-5" d="M184.29,58h0l-3.06-3.05,3.05-3.06a4.32,4.32,0,0,1,0,6.11" transform="translate(-56.86 -23.83)"/><rect class="cls-5" x="172.2" y="56.58" width="4.32" height="4.32" transform="translate(-47.28 116.78) rotate(-45.04)"/><rect class="cls-4" x="175.26" y="59.63" width="4.32" height="4.32" transform="translate(-48.54 119.83) rotate(-45.04)"/><path class="cls-5" d="M181.24,68.66l-3.05,3.05a4.31,4.31,0,0,1,0-6.11Z" transform="translate(-56.86 -23.83)"/><rect class="cls-4" x="179.08" y="63.45" width="4.32" height="4.32" transform="translate(-50.18 123.54) rotate(-45)"/><rect class="cls-5" x="185.95" y="62.68" width="4.32" height="4.32" transform="translate(-47.58 128.26) rotate(-45.03)"/><rect class="cls-4" x="182.9" y="59.63" width="4.32" height="4.32" transform="translate(-46.33 125.18) rotate(-45.02)"/><rect class="cls-2" x="179.1" y="49.73" width="4.3" height="4.3" transform="translate(-40.44 119.58) rotate(-45.02)"/><path class="cls-3" d="M177.45,64.82h0a4.3,4.3,0,0,1-6.08,0l3-3Z" transform="translate(-56.86 -23.83)"/><path class="cls-1" d="M107.31,63.45c0-1.64-.65-2.45-2.31-2.45h-1.48V64.5c0,1.06.17,1.18,1.54,1.18a2,2,0,0,0,2.25-2.22m-2.52-2.95a1.89,1.89,0,0,0,2.05-2c0-1.66-.66-2.25-2.14-2.25a6.17,6.17,0,0,0-1.18.09v4.18Zm-4,5.41.68-.13c.35-.06.47-.15.47-.91V57c0-.76-.12-.83-.47-.91l-.68-.13v-.27h4.08c2.22,0,3.64.7,3.64,2.46,0,1.42-.91,2.16-2.51,2.45v.06c2,.17,3.07,1,3.07,2.55,0,1.92-1.53,2.95-3.82,2.95h-4.45Z" transform="translate(-56.86 -23.83)"/><path class="cls-1" d="M114.44,64.94V62.49l-1.15.12c-1,.1-1.66.51-1.66,1.64A1.27,1.27,0,0,0,113,65.64a1.61,1.61,0,0,0,1.43-.71m-4.32-.56c0-1.24,1.18-1.76,2.16-2l2.16-.52V60.31c0-1-.15-1.6-1.41-1.6-.65,0-.83.15-.89.59s-.15,1-.8,1a.71.71,0,0,1-.8-.74c0-.94,1.55-1.28,2.79-1.28,1.78,0,2.58.66,2.58,2v4.65a.77.77,0,0,0,.39.79,1.74,1.74,0,0,0,.72.13V66a2.59,2.59,0,0,1-1.3.35,1.11,1.11,0,0,1-1.24-.88h-.07a2.65,2.65,0,0,1-2.05.89c-1.39,0-2.25-.71-2.25-2" transform="translate(-56.86 -23.83)"/><path class="cls-1" d="M118.12,65.93l.6-.17c.28-.07.39-.2.39-.78V59.92c0-.6-.08-.63-.44-.81l-.56-.29v-.21l2.36-.32.11.06,0,.88h.06a5.57,5.57,0,0,1,2.78-1c1.49,0,2,.65,2,2V65c0,.59.12.71.39.78l.6.17v.26h-3.47v-.26l.6-.17c.3-.07.39-.15.39-.78V60.62c0-1.06-.35-1.4-1.28-1.4a7.6,7.6,0,0,0-2,.39V65c0,.63.09.71.39.78l.6.17v.26h-3.47Z" transform="translate(-56.86 -23.83)"/><path class="cls-1" d="M127,62.44a3.92,3.92,0,0,1,4.23-4.18c1.42,0,2.08.5,2.08,1.27a.81.81,0,0,1-.87.82c-.58,0-.76-.32-.83-.82-.11-.68-.24-.79-.77-.79-1.22,0-2.27.82-2.27,3.16s.77,3.58,2.43,3.58a5.21,5.21,0,0,0,2.4-.63v.42a4.5,4.5,0,0,1-2.9,1.1c-2.28,0-3.5-1.65-3.5-3.93" transform="translate(-56.86 -23.83)"/><path class="cls-1" d="M138.84,64.94V62.49l-1.15.12c-1,.1-1.66.51-1.66,1.64a1.27,1.27,0,0,0,1.37,1.39,1.61,1.61,0,0,0,1.43-.71m-4.32-.56c0-1.24,1.18-1.76,2.16-2l2.16-.52V60.31c0-1-.15-1.6-1.41-1.6-.65,0-.83.15-.89.59s-.15,1-.8,1a.71.71,0,0,1-.8-.74c0-.94,1.55-1.28,2.79-1.28,1.78,0,2.58.66,2.58,2v4.65a.78.78,0,0,0,.39.79,1.76,1.76,0,0,0,.73.13V66a2.6,2.6,0,0,1-1.3.35,1.11,1.11,0,0,1-1.24-.88h-.08a2.65,2.65,0,0,1-2.05.89c-1.39,0-2.25-.71-2.25-2" transform="translate(-56.86 -23.83)"/><path class="cls-1" d="M143.89,65.92l.74-.13c.36-.06.47-.15.47-.91V57c0-.76-.11-.85-.47-.91l-.74-.13v-.27h4V56l-.74.13c-.39.08-.47.15-.47.91v7.84c0,.76.07.83.47.91l.74.13v.27h-4Z" transform="translate(-56.86 -23.83)"/><path class="cls-1" d="M153.83,65.93l.6-.17c.29-.08.39-.2.39-.79V59.92c0-.6-.08-.63-.44-.81l-.56-.29v-.21l2.43-.32.1.06s-.06.65-.06,1.42V65c0,.63.09.71.39.79l.6.17v.26h-3.47Z" transform="translate(-56.86 -23.83)"/><path class="cls-1" d="M158.54,66l0-2.22h.3a8.77,8.77,0,0,0,.79,1.45c.32.51.58.68,1.36.68a1.39,1.39,0,0,0,1.57-1.34c0-.82-.56-1.22-1.78-1.72s-2.19-1.15-2.19-2.33c0-1.4,1.24-2.26,2.79-2.26a5.29,5.29,0,0,1,1.93.32l.06,1.92h-.27a6.87,6.87,0,0,0-.75-1.27,1.25,1.25,0,0,0-1.15-.51c-1,0-1.45.44-1.45,1.18s.53,1.2,1.77,1.68c1.4.54,2.31,1.13,2.31,2.29,0,1.42-1.13,2.51-3,2.51a7,7,0,0,1-2.25-.36" transform="translate(-56.86 -23.83)"/><path class="cls-1" d="M151.64,64.9V57.23c0-1.57.79-2,1.66-2,.29,0,.39.09.42.33.06.51.32.89.89.89a.69.69,0,0,0,.74-.73c0-.51-.45-1-1.63-1-2.13,0-3.56,1.18-3.56,3.28v.45l-1,.36v.27h1V65c0,.59-.1.71-.39.78l-.6.17v.26h3.47v-.26l-.6-.17c-.33-.09-.39-.15-.39-.86" transform="translate(-56.86 -23.83)"/></svg>