<?xml version="1.0" encoding="utf-8"?>
<!-- Generator: Adobe Illustrator 17.0.0, SVG Export Plug-In . SVG Version: 6.00 Build 0)  -->
<!DOCTYPE svg PUBLIC "-//W3C//DTD SVG 1.1//EN" "http://www.w3.org/Graphics/SVG/1.1/DTD/svg11.dtd">
<svg version="1.1" id="Capa_1" xmlns="http://www.w3.org/2000/svg" xmlns:xlink="http://www.w3.org/1999/xlink" x="0px" y="0px"
	 width="1000px" height="1000px" viewBox="0 0 1000 1000" enable-background="new 0 0 1000 1000" xml:space="preserve">
<g>
	<path fill="#021F59" d="M903.227,48.388H96.773C43.549,48.388,0,91.937,0,145.163s43.549,96.773,96.773,96.773h806.451
		c53.227,0,96.773-43.549,96.773-96.773S956.451,48.388,903.227,48.388z"/>
	<path fill="#021F59" d="M903.227,403.228H96.773C43.549,403.228,0,446.774,0,500.001s43.549,96.773,96.773,96.773h806.451
		c53.227,0,96.775-43.547,96.775-96.773S956.451,403.228,903.227,403.228z"/>
	<path fill="#021F59" d="M903.227,758.065H96.773C43.549,758.065,0,801.614,0,854.839c0,53.227,43.549,96.773,96.773,96.773h806.451
		c53.227,0,96.773-43.549,96.773-96.773C1000,801.614,956.451,758.065,903.227,758.065z"/>
</g>
</svg>
