<?xml version="1.0" encoding="utf-8"?>
<!-- Generator: Adobe Illustrator 17.0.0, SVG Export Plug-In . SVG Version: 6.00 Build 0)  -->
<!DOCTYPE svg PUBLIC "-//W3C//DTD SVG 1.1//EN" "http://www.w3.org/Graphics/SVG/1.1/DTD/svg11.dtd">
<svg version="1.1" id="Layer_1" xmlns="http://www.w3.org/2000/svg" xmlns:xlink="http://www.w3.org/1999/xlink" x="0px" y="0px"
	 width="1000px" height="1000px" viewBox="0 0 1000 1000" enable-background="new 0 0 1000 1000" xml:space="preserve">
<path fill="#D6D6D6" d="M924.031,886.047H75.969c-17.829,0-31.783,14.729-31.783,31.783c0,17.054,14.729,31.783,31.783,31.783
	h848.837c17.829,0,31.783-14.729,31.783-31.783C956.589,900.775,941.86,886.047,924.031,886.047z"/>
<path fill="#D6D6D6" d="M44.186,604.651l-0.775,151.163c0,8.527,3.101,17.054,9.302,23.256c6.202,6.202,13.953,9.302,22.481,9.302
	l150.388-0.775c8.527,0,16.279-3.101,22.481-9.302l519.38-519.38c12.403-12.403,12.403-32.558,0-45.736L618.605,62.791
	c-12.403-12.403-32.558-12.403-45.736,0L468.992,167.442L53.488,582.171C48.062,588.372,44.186,596.124,44.186,604.651
	L44.186,604.651z M596.124,131.008l104.651,104.651l-58.915,58.915L537.209,189.922L596.124,131.008L596.124,131.008z
	 M108.527,618.605l382.946-382.946L596.124,340.31L213.178,722.481l-105.426,0.775L108.527,618.605L108.527,618.605z"/>
</svg>
