<?xml version="1.0" encoding="utf-8"?>
<!-- Generator: Adobe Illustrator 17.0.0, SVG Export Plug-In . SVG Version: 6.00 Build 0)  -->
<!DOCTYPE svg PUBLIC "-//W3C//DTD SVG 1.1//EN" "http://www.w3.org/Graphics/SVG/1.1/DTD/svg11.dtd">
<svg version="1.1"
	 id="svg2" xmlns:dc="http://purl.org/dc/elements/1.1/" xmlns:cc="http://creativecommons.org/ns#" xmlns:rdf="http://www.w3.org/1999/02/22-rdf-syntax-ns#" xmlns:svg="http://www.w3.org/2000/svg"
	 xmlns="http://www.w3.org/2000/svg" xmlns:xlink="http://www.w3.org/1999/xlink" x="0px" y="0px" width="1000px" height="1000px"
	 viewBox="0 0 1000 1000" enable-background="new 0 0 1000 1000" xml:space="preserve">
<path fill="#021F59" d="M0,500c0,276.144,223.856,500,500,500l0,0c276.141,0,500-223.856,500-500l0,0C1000,223.859,776.141,0,500,0
	l0,0C223.858,0,0,223.859,0,500 M398.829,378.205c0-61.751,47.826-108.974,110.369-108.974l0,0
	c62.541,0,110.37,47.221,110.37,108.974l0,0c0,61.751-47.829,108.974-110.37,108.974l0,0
	C446.655,487.179,398.829,439.958,398.829,378.205 M288.462,655.984c0-72.65,147.156-112.606,220.735-112.606l0,0
	c73.58,0,220.736,39.956,220.736,112.606l0,0v36.325H288.462V655.984z"/>
</svg>
