<?xml version="1.0" encoding="utf-8"?>
<!-- Generator: Adobe Illustrator 17.0.0, SVG Export Plug-In . SVG Version: 6.00 Build 0)  -->
<!DOCTYPE svg PUBLIC "-//W3C//DTD SVG 1.1//EN" "http://www.w3.org/Graphics/SVG/1.1/DTD/svg11.dtd">
<svg version="1.1" id="Layer_1" xmlns="http://www.w3.org/2000/svg" xmlns:xlink="http://www.w3.org/1999/xlink" x="0px" y="0px"
	 width="1000px" height="1000px" viewBox="0 0 1000 1000" enable-background="new 0 0 1000 1000" xml:space="preserve">
<g>
	<g>
		<path fill="#021F59" d="M966.667,609.167V250v-16.667v-100c0-46.042-37.292-83.333-83.333-83.333h-478.75l-5.208-20.625
			c-1.875-7.5-8.542-12.708-16.25-12.708H150c-7.708,0-14.375,5.208-16.25,12.708l-5,20.625H83.333C37.292,50,0,87.292,0,133.333
			v100v33.333v550C0,862.708,37.292,900,83.333,900h480.833C610,951.042,676.25,983.333,750,983.333c137.917,0,250-112.083,250-250
			C1000,688.125,987.708,645.833,966.667,609.167z M883.333,83.333c27.5,0,50,22.5,50,50v33.75
			c-13.958-10.625-31.25-17.083-50-17.083h-453.75l-16.667-66.667H883.333z M162.917,50h207.292l25,100H137.917L162.917,50z
			 M33.333,133.333c0-27.5,22.5-50,50-50h37.083L103.75,150H83.333c-18.75,0-36.042,6.458-50,17.083V133.333z M83.333,866.667
			c-27.5,0-50-22.5-50-50v-550v-33.333c0-27.5,22.5-50,50-50h33.333h300h466.667c27.5,0,50,22.5,50,50V250v313.958
			C887.708,514.583,822.5,483.333,750,483.333c-65.417,0-124.792,25.417-169.375,66.667H383.333c-9.167,0-16.667,7.5-16.667,16.667
			v166.667c0,9.167,7.5,16.667,16.667,16.667h117.5c0.833,11.25,2.083,22.5,4.167,33.333H400v33.333h114.583
			c6.25,17.708,14.375,34.375,24.375,50H83.333z M500.833,716.667H400V583.333h150.417
			C522.083,621.042,504.167,666.875,500.833,716.667z M574.167,607.083c23.958,13.542,49.167,24.167,75,31.667
			c-7.917,24.167-13.542,50.417-15.208,77.917h-100C537.292,676.042,551.667,638.333,574.167,607.083z M596.042,581.25
			c30.833-31.25,71.042-52.917,115.833-60.833c-15.417,20.833-34.792,51.042-50.625,87.292
			C638.75,601.25,616.875,592.5,596.042,581.25z M750,525.625c13.75,17.083,36.875,48.958,55.417,89.375
			c-36.667,6.25-74.167,6.25-110.833,0C713.125,574.583,736.25,542.708,750,525.625z M667.292,716.667
			c1.667-24.583,7.292-48.333,14.792-70.208c22.5,4.375,45.208,6.667,67.917,6.667s45.625-2.292,67.917-6.667
			c7.5,21.875,12.917,45.417,14.792,70.208H667.292z M832.708,750c-1.875,25.833-7.917,50.625-15.833,73.333
			c-44.167-8.333-89.583-8.333-133.75,0c-8.125-22.708-13.958-47.5-15.833-73.333H832.708z M788.125,520.208
			c44.792,8.125,85,29.792,115.833,60.833c-20.833,11.25-42.917,20-65.208,26.25C823.125,571.25,803.542,541.042,788.125,520.208z
			 M534.167,750h100c1.667,28.75,7.708,56.042,16.25,81.042c-25.625,7.292-50.625,17.708-74.375,31.042
			C552.5,830,537.292,791.667,534.167,750z M598.333,887.708c20.625-10.833,42.292-19.375,64.375-25.625
			c15.417,35,34.167,63.958,49.167,84.167C667.917,938.542,628.75,917.708,598.333,887.708z M696.042,854.792
			c35.625-6.042,72.083-6.042,107.917,0c-18.125,38.958-40.417,69.583-53.958,86.25C736.458,924.375,714.167,893.75,696.042,854.792
			z M788.125,946.458c15-20.208,33.75-49.375,49.167-84.167c22.083,6.042,43.75,14.583,64.375,25.625
			C871.25,917.708,832.083,938.542,788.125,946.458z M923.958,861.875c-23.75-13.125-48.75-23.542-74.375-31.042
			c8.542-25,14.375-52.292,16.25-81.042h100C962.708,791.667,947.5,830.208,923.958,861.875z M865.833,716.667
			c-1.667-27.5-7.083-53.75-15.208-77.917c25.833-7.5,51.042-18.125,75-31.667c22.5,31.25,36.875,68.958,40,109.583H865.833
			L865.833,716.667z"/>
	</g>
</g>
<g>
	<g>
		<path fill="#021F59" d="M300,233.333H100c-9.167,0-16.667,7.5-16.667,16.667v166.667c0,9.167,7.5,16.667,16.667,16.667h200
			c9.167,0,16.667-7.5,16.667-16.667V250C316.667,240.833,309.167,233.333,300,233.333z M283.333,400H116.667V266.667h166.667V400z"
			/>
	</g>
</g>
<g>
	<g>
		<path fill="#021F59" d="M583.333,233.333h-200c-9.167,0-16.667,7.5-16.667,16.667v166.667c0,9.167,7.5,16.667,16.667,16.667h200
			c9.167,0,16.667-7.5,16.667-16.667V250C600,240.833,592.5,233.333,583.333,233.333z M566.667,400H400V266.667h166.667V400z"/>
	</g>
</g>
<g>
	<g>
		<path fill="#021F59" d="M866.667,233.333h-200c-9.167,0-16.667,7.5-16.667,16.667v166.667c0,9.167,7.5,16.667,16.667,16.667h200
			c9.167,0,16.667-7.5,16.667-16.667V250C883.333,240.833,875.833,233.333,866.667,233.333z M850,400H683.333V266.667H850V400z"/>
	</g>
</g>
<g>
	<g>
		<path fill="#021F59" d="M300,550H100c-9.167,0-16.667,7.5-16.667,16.667v166.667C83.333,742.5,90.833,750,100,750h200
			c9.167,0,16.667-7.5,16.667-16.667V566.667C316.667,557.5,309.167,550,300,550z M283.333,716.667H116.667V583.333h166.667V716.667
			z"/>
	</g>
</g>
<g>
	<g>
		<rect x="116.667" y="466.667" fill="#021F59" width="166.667" height="33.333"/>
	</g>
</g>
<g>
	<g>
		<rect x="116.667" y="783.333" fill="#021F59" width="166.667" height="33.333"/>
	</g>
</g>
<g>
	<g>
		<rect x="400" y="466.667" fill="#021F59" width="166.667" height="33.333"/>
	</g>
</g>
<g>
	<g>
		<rect x="183.333" y="83.333" fill="#021F59" width="33.333" height="33.333"/>
	</g>
</g>
<g>
	<g>
		<rect x="250" y="83.333" fill="#021F59" width="33.333" height="33.333"/>
	</g>
</g>
<g>
	<g>
		<rect x="316.667" y="83.333" fill="#021F59" width="33.333" height="33.333"/>
	</g>
</g>
</svg>
