<svg
  xmlns="http://www.w3.org/2000/svg">
  <defs>
    <clipPath id="clipPath18" clipPathUnits="userSpaceOnUse">
      <path id="path16" d="m 100.001,399.999 c 0,-165.686 134.312,-299.998 299.998,-299.998 v 0 c 165.685,0 300,134.312 300,299.998 v 0 c 0,165.685 -134.315,300 -300,300 v 0 c -165.686,0 -299.998,-134.315 -299.998,-300"/>
    </clipPath>
    <clipPath id="clipPath28" clipPathUnits="userSpaceOnUse">
      <path id="path26" d="M 381.494,548.851 231.838,269.769 c -1.551,-2.87 -2.387,-6.02 -2.52,-9.188 v 0 -1.782 c 0.147,-3.52 1.162,-7.003 3.03,-10.091 v 0 c 2.428,-4.067 6.075,-7.143 10.307,-8.881 v 0 h 314.747 c 4.199,1.738 7.799,4.814 10.209,8.881 v 0 c 2.019,3.314 3.048,7.082 3.072,10.865 v 0 0.273 c -0.023,3.415 -0.863,6.83 -2.536,9.923 v 0 L 419.324,548.851 c -3.783,6.921 -11.001,11.322 -18.969,11.322 v 0 c -7.968,0 -15.185,-4.401 -18.861,-11.322 m -2.629,-182.147 v 85.829 c 0,11.858 9.659,21.49 21.49,21.49 v 0 c 11.832,0 21.49,-9.632 21.49,-21.49 v 0 -85.829 c 0,-11.938 -9.658,-21.49 -21.49,-21.49 v 0 c -11.831,0 -21.49,9.552 -21.49,21.49 m 0,-64.149 c 0,11.858 9.659,21.49 21.49,21.49 v 0 c 11.832,0 21.49,-9.632 21.49,-21.49 v 0 c 0,-11.832 -9.658,-21.357 -21.49,-21.357 v 0 c -11.831,0 -21.49,9.525 -21.49,21.357"/>
    </clipPath>
    <clipPath id="clipPath18" clipPathUnits="userSpaceOnUse">
      <path id="path16" d="m 366.826,667.066 c 0,-0.953 0,-1.906 0.174,-2.946 v 0 C 280.723,648.693 215.162,574.074 215.162,484.46 v 0 -182.521 h -38.551 c -6.819,0 -12.325,-5.458 -12.325,-12.218 v 0 -65 c 0,-6.76 5.506,-12.221 12.325,-12.221 v 0 h 446.774 c 6.819,0 12.325,5.461 12.325,12.221 v 0 65 c 0.175,6.759 -5.419,12.218 -12.15,12.218 v 0 H 585.011 V 484.46 c 0,89.614 -65.386,164.233 -151.751,179.66 v 0 c 0.174,0.954 0.174,1.907 0.174,2.946 v 0 c 0,18.115 -14.861,32.934 -33.305,32.934 v 0 c -18.444,0 -33.303,-14.734 -33.303,-32.934 M 334,175 c 0,-41.505 33.758,-75 75.429,-75 v 0 c 41.669,0 75.428,33.495 75.428,75 v 0 z"/>
    </clipPath>
    <clipPath id="clipPath18" clipPathUnits="userSpaceOnUse">
      <path id="path16" d="m 120.898,136.755 c -11.727,0 -20.895,-8.72 -20.895,-18.824 v 0 c 0,-10.094 9.686,-18.824 20.895,-18.824 v 0 h 558.2 c 11.727,0 20.905,8.73 20.905,18.824 v 0 c 0,10.104 -9.686,18.824 -21.412,18.824 v 0 z"/>
    </clipPath>
    <clipPath id="clipPath28" clipPathUnits="userSpaceOnUse">
      <path id="path26" d="M 449.348,691.034 380.811,626.708 106.653,371.752 c -3.584,-3.813 -6.142,-8.581 -6.142,-13.817 v 0 l -0.508,-92.925 c 0,-5.246 2.041,-10.483 6.132,-14.295 v 0 c 4.092,-3.813 9.208,-5.724 14.832,-5.724 v 0 l 99.237,0.478 c 5.625,0 10.741,1.901 14.832,5.714 v 0 l 342.695,319.291 c 8.183,7.625 8.183,20.009 0,28.112 v 0 l -98.201,92.448 c -4.092,3.812 -9.467,5.724 -14.902,5.724 v 0 c -5.435,0 -10.93,-1.912 -15.28,-5.724 m -23.523,-78.153 38.872,36.224 69.045,-64.336 -38.872,-36.215 z M 142.967,349.354 395.643,584.769 464.697,520.433 212.012,285.496 142.449,285.018 Z"/>
    </clipPath>
    <clipPath id="clipPath18" clipPathUnits="userSpaceOnUse">
      <path id="path16" d="m 100.002,399.999 c 0,-165.004 134.993,-299.997 299.997,-299.997 v 0 c 165.004,0 299.997,134.993 299.997,299.997 v 0 c 0,165.004 -134.993,299.997 -299.997,299.997 v 0 c -165.004,0 -299.997,-134.993 -299.997,-299.997 M 567.997,562 610.001,519.996 339.996,250.001 189.997,399.999 232.002,442.004 339.996,334 Z"/>
    </clipPath>
    <clipPath id="clipPath18" clipPathUnits="userSpaceOnUse">
      <path id="path16" d="M 100,400 C 100,234.314 234.314,100 400,100 v 0 c 165.685,0 300,134.314 300,300 v 0 c 0,165.685 -134.315,300 -300,300 v 0 C 234.314,700 100,565.685 100,400 m 239.297,73.077 c 0,37.051 28.696,65.384 66.221,65.384 v 0 c 37.525,0 66.222,-28.333 66.222,-65.384 v 0 c 0,-37.051 -28.697,-65.384 -66.222,-65.384 v 0 c -37.525,0 -66.221,28.333 -66.221,65.384 M 273.077,306.41 c 0,43.59 88.294,67.564 132.441,67.564 v 0 c 44.148,0 132.442,-23.974 132.442,-67.564 v 0 -21.795 H 273.077 Z"/>
    </clipPath>
    <clipPath id="clipPath18" clipPathUnits="userSpaceOnUse">
      <path id="path16" d="m 229.493,647.377 c 0,0 -0.517,0 -0.517,-0.515 v 0 c -5.674,-3.612 -10.833,-7.739 -15.992,-11.866 v 0 c -0.517,-0.516 -1.032,-0.516 -1.032,-1.032 v 0 c -17.026,-13.414 -31.986,-28.89 -45.916,-45.917 v 0 c -0.516,-0.514 -1.032,-1.031 -1.032,-1.031 v 0 c -4.643,-5.675 -9.286,-11.35 -13.413,-17.54 v 0 -0.517 C 119.088,520.98 100,463.198 100,400.774 v 0 c 0,-9.287 0.517,-18.573 1.548,-27.343 v 0 c 1.547,-3.612 1.547,-6.707 2.064,-9.286 v 0 c 0.515,-6.707 1.548,-13.414 3.095,-19.605 v 0 c 0.515,-2.58 1.032,-5.159 1.548,-7.738 v 0 c 3.611,-17.541 8.77,-34.567 15.993,-50.56 v 0 c 1.031,-2.579 2.063,-5.159 3.096,-7.222 v 0 c 2.579,-5.676 5.158,-11.35 8.254,-17.025 v 0 c 1.548,-2.58 2.579,-5.159 4.127,-7.739 v 0 c 3.095,-5.675 6.707,-11.35 10.318,-17.025 v 0 c 1.032,-1.547 2.063,-3.611 3.611,-5.159 v 0 c 0.516,-0.515 0.516,-1.032 1.032,-1.548 v 0 c 0.516,-0.516 1.032,-1.031 1.032,-1.548 v 0 c 8.255,-11.865 17.541,-23.215 27.859,-34.05 v 0 c 0,0 0.516,-0.515 0.516,-1.031 v 0 c 0.516,-1.031 1.547,-1.547 2.58,-2.579 v 0 c 2.062,-2.064 4.127,-4.128 6.191,-6.191 v 0 c 1.031,-0.517 1.547,-1.548 2.579,-2.58 v 0 l 0.516,-0.516 c 10.834,-10.318 22.7,-20.12 35.082,-28.89 v 0 c 0.516,-0.517 1.031,-1.033 1.547,-1.033 v 0 c 7.739,-5.159 15.993,-9.802 23.732,-14.445 v 0 c 1.548,-1.031 3.611,-2.063 5.159,-2.579 v 0 c 6.191,-3.611 12.898,-6.707 19.604,-9.287 v 0 c 2.064,-1.032 3.612,-1.547 5.675,-2.58 v 0 c 16.51,-6.706 34.05,-12.381 51.591,-15.993 v 0 c 2.063,-0.515 4.643,-1.032 6.707,-1.548 v 0 c 6.706,-1.03 13.413,-2.578 20.637,-3.095 v 0 c 2.579,-0.515 5.158,-0.515 7.738,-1.031 v 0 C 382.717,100.516 391.487,100 400.774,100 v 0 c 62.424,0 120.206,19.089 167.67,51.591 v 0 c 0,0 0.516,0 0.516,0.515 v 0 c 7.223,4.644 13.929,9.803 20.635,15.478 v 0 c 1.033,1.031 2.064,1.548 3.096,2.579 v 0 c 4.643,4.128 9.287,8.255 13.93,12.899 v 0 l 2.063,2.063 6.191,6.191 2.58,2.579 c 2.579,2.58 4.643,5.675 7.222,8.254 v 0 c 2.58,3.096 5.676,5.675 7.739,9.286 v 0 c 5.159,6.192 9.802,12.382 14.446,19.089 v 0 c 0,0 0,0.516 0.516,0.516 v 0 C 680.396,279.02 700,337.317 700,400.258 v 0 c 0,9.286 -0.516,18.572 -1.548,27.343 v 0 c 0,2.58 -0.516,5.159 -1.031,7.738 v 0 c -1.033,6.708 -2.065,13.93 -3.096,20.637 v 0 c -0.517,2.064 -1.032,4.643 -1.547,6.707 v 0 c -3.612,17.541 -9.286,35.082 -15.994,51.59 v 0 c -1.033,2.064 -1.547,3.612 -2.58,5.675 v 0 c -3.095,6.708 -6.191,12.898 -9.286,19.605 v 0 c -1.031,1.548 -1.547,3.611 -2.579,5.158 v 0 c -4.643,8.255 -9.286,15.994 -14.445,23.733 v 0 c -0.516,0.515 -1.032,1.032 -1.548,1.548 v 0 c -3.612,5.158 -7.738,10.317 -11.35,15.477 v 0 c 0,0.516 0,0.516 -0.517,1.031 v 0 c -0.515,0.516 -1.031,1.033 -1.031,1.547 v 0 c -13.414,17.027 -28.89,31.987 -45.915,45.917 v 0 c -0.516,0.516 -1.032,1.032 -1.548,1.032 v 0 c 0,0 -0.516,0 -1.032,0.516 v 0 c -4.644,3.611 -9.287,7.222 -13.93,10.317 v 0 c -0.515,0.517 -1.031,1.033 -1.547,1.033 v 0 c -0.516,0.515 -1.032,0.515 -1.548,1.032 v 0 c -1.548,1.031 -3.612,2.063 -5.16,3.095 v 0 c -5.674,3.611 -11.349,7.222 -17.541,10.318 v 0 c -2.578,1.547 -5.159,2.579 -7.738,4.127 v 0 c -5.675,3.096 -11.349,5.675 -17.025,8.255 v 0 c -2.579,1.032 -4.643,2.063 -7.223,3.095 v 0 c -16.509,6.707 -33.533,11.866 -51.074,15.994 v 0 c -2.58,0.515 -5.16,1.031 -7.738,1.547 v 0 l -20.121,3.096 c -2.58,0.515 -5.159,0.515 -8.254,1.031 v 0 C 416.767,699.484 407.996,700 398.711,700 v 0 c -62.942,0 -121.239,-19.604 -169.218,-52.623 m 46.947,-22.7 c 37.145,20.636 79.45,32.503 124.334,32.503 v 0 c 7.739,0 15.993,-0.516 23.732,-1.032 v 0 c 1.548,0 3.095,-0.516 4.643,-0.516 v 0 c 7.739,-1.032 14.961,-2.064 22.184,-3.612 v 0 c 1.031,0 2.579,-0.515 3.612,-1.031 v 0 c 6.705,-1.548 12.897,-3.095 19.603,-5.16 v 0 c 1.032,-0.516 2.58,-0.516 3.612,-1.031 v 0 c 7.223,-2.064 13.929,-4.643 20.636,-7.738 v 0 c 1.547,-0.517 3.095,-1.548 4.643,-2.064 v 0 c 5.675,-2.58 11.867,-5.16 17.541,-8.255 v 0 c 1.032,-0.516 2.064,-1.031 3.095,-1.548 v 0 c 0.517,0 0.517,-0.516 1.033,-0.516 v 0 l -85.642,-85.64 c -0.514,0 -1.03,0 -1.547,0.516 v 0 c -5.159,1.548 -10.318,2.579 -15.478,3.096 v 0 c -1.546,0 -2.578,0.515 -4.126,0.515 v 0 c -5.676,0.516 -11.866,1.033 -18.057,1.033 v 0 c -13.414,0 -26.312,-2.065 -38.693,-5.16 v 0 z m 203.784,-104.212 80.481,80.481 41.273,-41.273 c 0.515,-0.516 0.515,-0.516 1.032,-1.031 v 0 l -80.482,-80.998 c -10.834,17.025 -25.28,31.47 -42.304,42.821 m -281.686,37.66 c 0.516,0.517 0.516,1.032 1.032,1.032 v 0 l 41.788,41.789 80.482,-80.481 c -12.381,-8.255 -23.731,-18.574 -33.018,-30.439 v 0 c -0.516,-0.516 -0.516,-1.032 -1.032,-1.032 v 0 c -2.58,-3.611 -5.158,-7.222 -7.738,-10.834 v 0 c 0,0 0,-0.516 -0.517,-0.516 v 0 z m 341.53,-197.077 c 3.612,12.383 5.159,25.28 5.159,38.694 v 0 c 0,5.675 -0.516,11.866 -1.03,17.54 v 0 c 0,1.033 -0.517,2.065 -0.517,3.096 v 0 c -0.516,5.16 -1.547,9.803 -3.095,14.961 v 0 1.032 l 86.156,86.156 c 3.612,-6.706 7.223,-13.928 10.319,-21.151 v 0 c 0.515,-1.032 1.031,-2.064 1.548,-3.096 v 0 c 3.094,-7.222 5.674,-14.445 7.738,-21.668 v 0 c 0,-0.516 0.516,-1.031 0.516,-2.064 v 0 c 2.063,-6.706 4.127,-13.929 5.674,-21.151 v 0 c 0,-1.033 0.517,-2.064 0.517,-3.612 v 0 c 1.547,-7.223 2.579,-14.962 3.611,-22.184 v 0 c 0,-1.548 0.516,-3.095 0.516,-4.643 v 0 c 0.516,-7.739 1.032,-15.478 1.032,-23.731 v 0 c 0,-44.885 -11.866,-87.189 -31.987,-124.335 v 0 z M 175.323,276.44 c -0.516,1.032 -1.033,2.064 -1.548,3.612 v 0 c -3.095,5.675 -5.676,11.349 -8.255,17.024 v 0 c -0.516,1.548 -1.547,3.096 -2.064,4.644 v 0 c -2.579,6.706 -5.159,13.414 -7.738,20.637 v 0 c -0.516,1.547 -0.516,2.578 -1.032,4.126 v 0 c -2.063,6.191 -3.611,12.898 -5.159,19.088 v 0 c -0.516,1.032 -0.516,2.58 -1.032,3.612 v 0 c -1.548,7.223 -2.58,14.446 -3.611,22.184 v 0 c 0,1.548 -0.516,3.096 -0.516,5.16 v 0 c -0.516,7.738 -1.031,15.477 -1.031,23.731 v 0 c 0,43.852 11.349,85.64 31.47,122.269 v 0 l 86.156,-86.156 c -3.095,-11.865 -4.643,-23.732 -4.643,-36.629 v 0 c 0,-6.191 0.516,-11.866 1.031,-18.057 v 0 c 0,-1.548 0.517,-2.58 0.517,-4.126 v 0 l 3.095,-15.478 c 0,-0.517 0,-1.033 0.516,-1.548 v 0 l -85.641,-85.125 c 0,0.517 -0.515,0.517 -0.515,1.032 m 191.401,27.343 c -27.86,10.319 -50.044,31.986 -60.361,59.846 v 0 c -1.032,3.095 -2.064,5.674 -3.095,8.77 v 0 0.516 c -0.516,2.579 -1.548,5.159 -2.064,8.254 v 0 c 0,1.032 -0.516,2.064 -0.516,3.096 v 0 c -0.516,2.063 -0.516,4.126 -1.032,6.191 v 0 c -1.547,2.579 -1.547,6.19 -1.547,9.286 v 0 c 0,12.382 2.579,24.248 6.19,35.081 v 0 c 1.032,3.612 2.58,6.708 4.127,9.803 v 0 c 1.548,3.095 3.096,6.191 5.159,9.286 v 0 c 11.867,18.573 28.892,32.503 49.528,40.757 v 0 c 11.349,4.643 23.731,6.707 36.629,6.707 v 0 c 3.096,0 6.707,0 9.802,-0.516 v 0 c 2.065,0 4.128,-0.516 6.191,-1.032 v 0 c 1.032,0 2.064,-0.516 3.096,-0.516 v 0 c 2.579,-0.516 5.675,-1.032 8.254,-2.064 v 0 h 1.032 c 3.095,-1.031 5.675,-1.547 8.771,-3.095 v 0 c 27.858,-10.834 49.526,-32.503 59.844,-60.361 v 0 c 1.033,-2.58 2.064,-5.675 2.581,-8.254 v 0 -0.517 l 1.546,-7.739 c 0,-1.031 0.517,-2.063 0.517,-3.095 v 0 c 0.515,-2.063 0.515,-4.127 1.031,-5.674 v 0 c 0.517,-3.096 0.517,-6.191 0.517,-9.286 v 0 c 0,-12.899 -2.581,-25.281 -6.707,-36.631 v 0 C 488.479,341.96 474.034,324.42 455.46,313.069 v 0 c -3.096,-2.063 -6.191,-3.611 -9.286,-5.159 v 0 c -3.096,-1.546 -6.708,-3.094 -9.803,-4.127 v 0 c -10.834,-4.127 -22.699,-6.19 -35.081,-6.19 v 0 c -3.096,0 -6.192,0 -9.287,0.516 v 0 c -2.063,0 -3.611,0.515 -5.674,1.031 v 0 c -1.032,0 -2.064,0.516 -3.096,0.516 v 0 c -2.58,0.516 -5.159,1.031 -7.739,1.548 v 0 h -0.515 c -2.58,1.031 -5.676,1.548 -8.255,2.579 m 111.952,-25.795 c 0,0 0.515,0 0.515,0.516 v 0 c 3.611,2.579 7.223,5.159 10.835,7.738 v 0 c 0.516,0.517 1.032,0.517 1.032,1.033 v 0 c 11.866,9.286 21.667,20.635 30.438,33.017 v 0 l 80.482,-80.482 c -0.516,-0.515 -0.516,-1.031 -1.033,-1.548 v 0 c -3.095,-3.61 -6.19,-7.222 -9.286,-10.316 v 0 c -2.064,-2.064 -4.126,-4.644 -6.19,-6.708 v 0 l -6.192,-6.191 c -4.127,-4.128 -8.254,-8.254 -12.897,-11.866 v 0 c -1.031,-1.032 -2.58,-2.063 -3.612,-3.095 v 0 c -1.03,-1.032 -2.063,-1.548 -3.095,-2.579 v 0 z m -256.406,-63.457 -6.707,6.707 c -5.675,5.675 -11.349,11.866 -16.509,18.572 v 0 l 80.481,80.482 c 11.35,-17.024 25.796,-31.469 42.821,-42.304 v 0 L 242.39,197.507 c -6.706,5.674 -13.414,11.35 -20.12,17.024 m 214.618,44.884 86.156,-86.156 c -36.113,-19.605 -77.902,-30.955 -122.27,-30.955 v 0 c -7.739,0 -15.993,0.516 -23.732,1.032 v 0 c -1.548,0 -3.096,0.516 -4.643,0.516 v 0 c -7.739,1.032 -14.961,2.064 -22.184,3.612 v 0 c -1.032,0 -2.064,0.516 -3.612,0.516 v 0 c -7.222,1.547 -13.929,3.095 -21.151,5.159 v 0 c -0.517,0 -1.033,0.515 -2.064,0.515 v 0 c -7.223,2.064 -14.446,5.159 -21.668,7.739 v 0 c -1.032,0.516 -2.064,1.032 -3.096,1.547 v 0 c -7.223,3.096 -13.929,6.192 -21.152,10.319 v 0 l 86.157,86.156 h 1.547 c 4.643,-1.031 9.803,-2.064 14.446,-3.095 v 0 c 1.031,0 2.579,-0.517 3.611,-0.517 v 0 c 5.675,-0.515 11.35,-1.03 17.025,-1.03 v 0 c 12.897,0 24.763,1.547 36.63,4.642"/>
    </clipPath>
  </defs>
  <symbol id="01_verde" viewBox="0 0 682.66669 501.34668">
    <g transform="matrix(1.3333333,0,0,-1.3333333,0,501.34667)" id="g10">
      <g transform="scale(0.1)" id="g12">
        <path id="path14" style="fill:#257c38;fill-opacity:1;fill-rule:nonzero;stroke:none" d="M 1434.92,74.9492 74.9844,1434.87 c -99.9805,99.99 -99.9805,262.07 0,362.05 99.9806,99.96 262.0706,99.97 362.0356,0 L 1615.94,617.988 4682.98,3685.07 c 99.98,99.98 262.07,99.98 362.04,0 99.97,-99.98 99.98,-262.07 0,-362.04 L 1796.96,74.9492 c -99.9,-99.8984 -262.1,-99.9687 -362.04,0"/>
      </g>
    </g>
  </symbol>
  <symbol id="02_giallo" viewBox="0 0 682.66669 669.93335">
    <g transform="matrix(1.3333333,0,0,-1.3333333,0,669.93333)" id="g10">
      <g transform="scale(0.1)" id="g12">
        <path id="path14" style="fill:#fab50a;fill-opacity:1;fill-rule:nonzero;stroke:none" d="M 4937.5,356.289 H 182.496 C 82.5781,356.289 4.23438,273.77 4.23438,178.25 4.23438,82.5195 87.0391,-0.0117188 182.496,-0.0117188 H 4941.95 c 99.98,0 178.05,82.5312188 178.05,178.2617188 0,95.52 -82.53,178.039 -182.5,178.039 v 0"/>
        <path id="path16" style="fill:#fab50a;fill-opacity:1;fill-rule:nonzero;stroke:none" d="M 365.047,1855.93 2512.14,4003.02 3098.96,3416.19 951.871,1273.56 360.809,1269.1 Z M 3098.96,4589.84 3685.78,4003.02 3355.56,3672.8 2768.74,4259.62 Z M 4.23438,1934.22 0,1086.6 C 0,1038.85 17.3828,991.102 52.2148,956.27 87.0391,921.441 130.285,904.059 178.258,904.059 l 843.212,4.23 c 47.76,0 91.22,17.441 126.04,52.223 L 4059.52,3872.73 c 69.6,69.38 69.6,182.5 0,256.38 L 3225,4972.27 c -69.59,69.6 -182.49,69.6 -256.33,0 L 2386.31,4385.45 56.4531,2060.27 C 26.0742,2025.49 4.23438,1981.98 4.23438,1934.22 v 0"/>
      </g>
    </g>
  </symbol>
  <symbol id="03_nero" viewBox="0 0 682.66669 682.66669">
    <g transform="matrix(1.3333333,0,0,-1.3333333,0,682.66667)" id="g10">
      <g transform="scale(0.1)" id="g12">
        <path id="path14" style="fill:#231f20;fill-opacity:1;fill-rule:nonzero;stroke:none" d="m 2303.69,3327.37 h 512.63 v 512.65 H 2303.69 Z M 2560,512.648 c -1126.4,0 -2047.363,920.962 -2047.363,2047.362 0,1126.4 920.963,2047.37 2047.363,2047.37 1126.41,0 2047.37,-920.97 2047.37,-2047.37 0,-1126.4 -920.96,-2047.362 -2047.37,-2047.362 z m 0,4607.362 C 1152.64,5120.01 0,3967.37 0,2560.01 0,1152.65 1152.64,0 2560,0 c 1407.36,0 2560,1152.65 2560,2560.01 0,1407.36 -1152.64,2560 -2560,2560 z m -256.31,-3840 h 512.63 V 2816.32 H 2303.69 V 1280.01"/>
      </g>
    </g>
  </symbol>
  <symbol id="03_rosso" viewBox="0 0 682.66669 682.66669">
    <g transform="matrix(1.3333333,0,0,-1.3333333,0,682.66667)" id="g10">
      <g transform="scale(0.1)" id="g12">
        <path id="path14" style="fill:#e31d25;fill-opacity:1;fill-rule:nonzero;stroke:none" d="m 2560,468.98 c -464.78,0 -894.39,152.68 -1242.05,410.168 L 4240.84,3802.05 C 4498.44,3454.49 4651.02,3024.78 4651.02,2560 4651.02,1406.94 3713.15,468.98 2560,468.98 Z M 468.98,2560 c 0,1153.16 937.86,2091.12 2091.02,2091.12 519.68,0 995.21,-190.88 1361.12,-505.61 L 974.59,1198.97 C 659.758,1564.89 468.98,2040.32 468.98,2560 Z M 2560,5120 C 1148.56,5120 0,3971.53 0,2560 0,1148.17 1148.56,0 2560,0 3971.83,0 5120,1148.17 5120,2560 5120,3971.53 3971.44,5120 2560,5120 v 0"/>
      </g>
    </g>
  </symbol>
  <symbol id="allert" viewBox="0 0 1066.6667 1066.6667">
    <g transform="matrix(1.3333333,0,0,-1.3333333,0,1066.6667)" id="g10">
      <g id="g12">
        <g clip-path="url(#clipPath18)" id="g14">
          <path id="path20" style="fill:#7bb8ed;fill-opacity:1;fill-rule:nonzero;stroke:none" d="M 25,25 H 775 V 775 H 25 Z"/>
        </g>
      </g>
      <g id="g22">
        <g clip-path="url(#clipPath28)" id="g24">
          <path id="path30" style="fill:#ffdc0f;fill-opacity:1;fill-rule:nonzero;stroke:none" d="M 154.3,163.218 H 645.684 V 635.173 H 154.3 Z"/>
        </g>
      </g>
    </g>
  </symbol>
  <symbol id="campana" viewBox="0 0 1066.6667 1066.6667">
    <g transform="matrix(1.3333333,0,0,-1.3333333,0,1066.6667)" id="g10">
      <g id="g12">
        <g clip-path="url(#clipPath18)" id="g14">
          <path id="path20" style="fill:#005192;fill-opacity:1;fill-rule:nonzero;stroke:none" d="M 57.143,-7.143 H 742.857 V 807.143 H 57.143 Z"/>
        </g>
      </g>
    </g>
  </symbol>
  <symbol id="edit" viewBox="0 0 1066.6667 1066.6667">
    <g transform="matrix(1.3333333,0,0,-1.3333333,0,1066.6667)" id="g10">
      <g id="g12">
        <g clip-path="url(#clipPath18)" id="g14">
          <path id="path20" style="fill:#005192;fill-opacity:1;fill-rule:nonzero;stroke:none" d="M -76.471,-77.36 H 876.47 V 313.228 H -76.471 Z"/>
        </g>
      </g>
      <g id="g22">
        <g clip-path="url(#clipPath28)" id="g24">
          <path id="path30" style="fill:#005192;fill-opacity:1;fill-rule:nonzero;stroke:none" d="M -76.471,68.521 H 760.341 V 873.227 H -76.471 Z"/>
        </g>
      </g>
    </g>
  </symbol>
  <symbol id="ok" viewBox="0 0 1066.6667 1066.6667">
    <g transform="matrix(1.3333333,0,0,-1.3333333,0,1066.6667)" id="g10">
      <g id="g12">
        <g clip-path="url(#clipPath18)" id="g14">
          <path id="path20" style="fill:#7bb8ed;fill-opacity:1;fill-rule:nonzero;stroke:none" d="M -50,-50 H 850 V 850 H -50 Z"/>
        </g>
      </g>
    </g>
  </symbol>
  <symbol id="profilo" viewBox="0 0 1066.6667 1066.6667">
    <g transform="matrix(1.3333333,0,0,-1.3333333,0,1066.6667)" id="g10">
      <g id="g12">
        <g clip-path="url(#clipPath18)" id="g14">
          <path id="path20" style="fill:#005192;fill-opacity:1;fill-rule:nonzero;stroke:none" d="M 0,0 H 800 V 800 H 0 Z"/>
        </g>
      </g>
    </g>
  </symbol>
  <symbol id="salvagente" viewBox="0 0 1066.6667 1066.6667">
    <g transform="matrix(1.3333333,0,0,-1.3333333,0,1066.6667)" id="g10">
      <g id="g12">
        <g clip-path="url(#clipPath18)" id="g14">
          <path id="path20" style="fill:#005192;fill-opacity:1;fill-rule:nonzero;stroke:none" d="M -3.448,-3.448 H 803.448 V 803.448 H -3.448 Z"/>
        </g>
      </g>
    </g>
  </symbol>
  <symbol id="tick" viewBox="0 0 1066.6667 1066.6667">
    <g transform="matrix(1.3333333,0,0,-1.3333333,0,1066.6667)" id="g10">
      <g transform="translate(290.9088,266.3019)" id="g12">
        <path id="path14" style="fill-opacity:1;fill-rule:nonzero;stroke:none" d="M 0,0 -143.181,143.983 -190.91,95.986 0,-95.99 409.091,315.392 361.363,363.385 Z"/>
      </g>
    </g>
  </symbol>
  <symbol viewBox="0 0 24 24" id="close"><path  d="M14.3 11.7l6-6c.3-.3.3-.7 0-1l-.9-1c-.3-.2-.7-.2-1 0l-6 6.1c-.2.2-.5.2-.7 0l-6-6.1c-.3-.3-.7-.3-1 0l-1 1c-.2.2-.2.7 0 .9l6.1 6.1c.2.2.2.4 0 .6l-6.1 6.1c-.3.3-.3.7 0 1l1 1c.2.2.7.2.9 0l6.1-6.1c.2-.2.4-.2.6 0l6.1 6.1c.2.2.7.2.9 0l1-1c.3-.3.3-.7 0-1l-6-6c-.2-.2-.2-.5 0-.7z"/></symbol>
  <symbol id="add" viewBox="0 0 42 42">
    <polygon points="42,19 23,19 23,0 19,0 19,19 0,19 0,23 19,23 19,42 23,42 23,23 42,23 "/>
  </symbol>
  <symbol id="check-circle" viewBox="0 0 20 20">
    <!-- Generator: Sketch 45.2 (43514) - http://www.bohemiancoding.com/sketch -->
    <title>check-circle</title>
    <desc>Created with Sketch.</desc>
    <g id="Documentazione" stroke="none" stroke-width="1" >
      <g id="210---Scarica-MAV-e-RSF" transform="translate(-672.000000, -155.000000)" >
        <g id="check-circle" transform="translate(672.000000, 155.000000)">
          <path d="M10,0 C4.5,0 0,4.5 0,10 C0,15.5 4.5,20 10,20 C15.5,20 20,15.5 20,10 C20,4.5 15.5,0 10,0 L10,0 Z M8,15 L3,10 L4.4,8.6 L8,12.2 L15.6,4.6 L17,6 L8,15 L8,15 Z" id="Shape"/>
        </g>
      </g>
    </g>
  </symbol>
  <symbol id="fileupload" viewBox="0 0 24 29">
    <!-- Generator: Sketch 45.2 (43514) - http://www.bohemiancoding.com/sketch -->
    <title>file-upload</title>
    <desc>Created with Sketch.</desc>
    <g id="Symbols" stroke="none" stroke-width="1" fill="none" fill-rule="evenodd">
      <g id="Image-drop" transform="translate(-88.000000, -71.000000)" >
        <g id="Group-2" transform="translate(33.000000, 17.000000)">
          <g id="file-upload" transform="translate(55.000000, 54.000000)">
            <polygon id="Shape" points="6.85714286 22 17.1428571 22 17.1428571 11.8461538 24 11.8461538 12 0 0 11.8461538 6.85714286 11.8461538"/>
            <rect id="Rectangle-path" x="0" y="26" width="24" height="3"/>
          </g>
        </g>
      </g>
    </g>
  </symbol>
  <symbol id="icon-instagram" viewBox="0 0 18 18">
    <!-- Generator: Sketch 45.2 (43514) - http://www.bohemiancoding.com/sketch -->
    <title>post-instagram</title>
    <desc>Created with Sketch.</desc>
    <g id="Symbols" stroke="none" stroke-width="1" fill="none" fill-rule="evenodd">
      <g id="MEN&#xF9;" transform="translate(-1402.000000, -15.000000)" fill="#003A82">
        <g id="post-instagram" transform="translate(1402.000000, 15.000000)">
          <path d="M16.2,0 L1.8,0 C0.81,0 0,0.81 0,1.8 L0,16.2 C0,17.19 0.81,18 1.8,18 L16.2,18 C17.19,18 18,17.19 18,16.2 L18,1.8 C18,0.81 17.19,0 16.2,0 L16.2,0 Z M9,5.4 C10.98,5.4 12.6,7.02 12.6,9 C12.6,10.98 10.98,12.6 9,12.6 C7.02,12.6 5.4,10.98 5.4,9 C5.4,7.02 7.02,5.4 9,5.4 L9,5.4 Z M2.25,16.2 C1.98,16.2 1.8,16.02 1.8,15.75 L1.8,8.1 L3.69,8.1 C3.6,8.37 3.6,8.73 3.6,9 C3.6,11.97 6.03,14.4 9,14.4 C11.97,14.4 14.4,11.97 14.4,9 C14.4,8.73 14.4,8.37 14.31,8.1 L16.2,8.1 L16.2,15.75 C16.2,16.02 16.02,16.2 15.75,16.2 L2.25,16.2 L2.25,16.2 Z M16.2,4.05 C16.2,4.32 16.02,4.5 15.75,4.5 L13.95,4.5 C13.68,4.5 13.5,4.32 13.5,4.05 L13.5,2.25 C13.5,1.98 13.68,1.8 13.95,1.8 L15.75,1.8 C16.02,1.8 16.2,1.98 16.2,2.25 L16.2,4.05 L16.2,4.05 Z" id="Shape"/>
        </g>
      </g>
    </g>
  </symbol>
  <symbol id="menu-mobile" viewBox="0 0 124 124">
    <g>
      <path d="M112,6H12C5.4,6,0,11.4,0,18s5.4,12,12,12h100c6.6,0,12-5.4,12-12S118.6,6,112,6z" fill="#004f94"/>
      <path d="M112,50H12C5.4,50,0,55.4,0,62c0,6.6,5.4,12,12,12h100c6.6,0,12-5.4,12-12C124,55.4,118.6,50,112,50z" fill="#004f94"/>
      <path d="M112,94H12c-6.6,0-12,5.4-12,12s5.4,12,12,12h100c6.6,0,12-5.4,12-12S118.6,94,112,94z" fill="#004f94"/>
    </g>
  </symbol>
  <symbol id="substract" viewBox="0 0 42 42">
    <rect y="19" width="42" height="4"/>
  </symbol>
  <symbol viewBox="0 0 24 24" id="help">
    <path d="M13.1 17.5h-2.3c-.4 0-.6-.2-.6-.6v-.7c0-1.9 1.2-3.7 3-4.3.6-.2 1.1-.5 1.5-1 2.3-2.8.2-6.1-2.6-6.2-1 0-1.9.3-2.7 1-.6.6-1 1.3-1 2.1-.1.2-.4.5-.7.5H5.4c-.5 0-.8-.4-.7-.8.1-1.7.9-3.3 2.2-4.5C8.4 1.6 10.2.8 12.3.9c3.8.1 6.9 3.3 7.1 7.1.1 3.2-1.9 6.1-4.9 7.2-.4.2-.7.5-.7 1v.6c0 .5-.3.7-.7.7zm.7 4.9c0 .4-.3.7-.6.7h-2.4c-.3 0-.6-.3-.6-.7v-2.3c0-.4.3-.7.6-.7h2.4c.3 0 .6.3.6.7v2.3z"></path>
  </symbol>
  <symbol id="email" viewBox="0 0 510 510">
      <g>  <path d="M459,51H51C22.95,51,0,73.95,0,102v306c0,28.05,22.95,51,51,51h408c28.05,0,51-22.95,51-51V102
    C510,73.95,487.05,51,459,51z M459,153L255,280.5L51,153v-51l204,127.5L459,102V153z"/> </g>
  </symbol>
  <symbol id="upload" viewBox="0 0 1066.6667 1066.6667">
    <g transform="matrix(1.3333333,0,0,-1.3333333,0,1066.6667)" id="g10">
      <g transform="translate(151.7238,454.4073)" id="g12">
        <path id="path14" style="fill:#7bb8ed;fill-opacity:1;fill-rule:nonzero;stroke:none" d="M 0,0 H 141.872 V -210.08 H 354.68 V 0 H 496.552 L 248.276,245.093 Z"/>
      </g>
      <path id="path16" style="fill:#7bb8ed;fill-opacity:1;fill-rule:nonzero;stroke:none" d="m 151.724,99.5 h 496.552 v 62.068 H 151.724 Z"/>
    </g>
  </symbol>
  <symbol id="warning" viewBox="0 0 512 512">
    <g>
      <g>
        <path d="M501.362,383.95L320.497,51.474c-29.059-48.921-99.896-48.986-128.994,0L10.647,383.95    c-29.706,49.989,6.259,113.291,64.482,113.291h361.736C495.039,497.241,531.068,433.99,501.362,383.95z M256,437.241    c-16.538,0-30-13.462-30-30c0-16.538,13.462-30,30-30c16.538,0,30,13.462,30,30C286,423.779,272.538,437.241,256,437.241z     M286,317.241c0,16.538-13.462,30-30,30c-16.538,0-30-13.462-30-30v-150c0-16.538,13.462-30,30-30c16.538,0,30,13.462,30,30    V317.241z" />
      </g>
    </g>
  </symbol>
  <symbol id="pencil" viewBox="0 0 129 129">
      <g> <g> <path d="m119.2,114.3h-109.4c-2.3,0-4.1,1.9-4.1,4.1s1.9,4.1 4.1,4.1h109.5c2.3,0 4.1-1.9 4.1-4.1s-1.9-4.1-4.2-4.1z"/> <path d="m5.7,78l-.1,19.5c0,1.1 0.4,2.2 1.2,3 0.8,0.8 1.8,1.2 2.9,1.2l19.4-.1c1.1,0 2.1-0.4 2.9-1.2l67-67c1.6-1.6 1.6-4.2 0-5.9l-19.2-19.4c-1.6-1.6-4.2-1.6-5.9-1.77636e-15l-13.4,13.5-53.6,53.5c-0.7,0.8-1.2,1.8-1.2,2.9zm71.2-61.1l13.5,13.5-7.6,7.6-13.5-13.5 7.6-7.6zm-62.9,62.9l49.4-49.4 13.5,13.5-49.4,49.3-13.6,.1 .1-13.5z"/> </g> </g>
  </symbol>
  <symbol id="download" viewBox="0 0 362.667 362.667">
      <g>
        <g>
          <polygon points="330.667,128 245.333,128 245.333,0 117.333,0 117.333,128 32,128 181.333,277.333 			"/>
          <rect x="32" y="320" width="298.667" height="42.667"/>
        </g>
      </g>
  </symbol>
  <symbol id="play" viewBox="0 0 415.346 415.346">
    <g>
		<path d="M41.712,415.346c-11.763,0-21.3-9.537-21.3-21.3V21.299C20.412,9.536,29.949,0,41.712,0l346.122,191.697
			c0,0,15.975,15.975,0,31.951C371.859,239.622,41.712,415.346,41.712,415.346z"/>
	  </g>
  </symbol>
    <symbol id="riepilogo_pratiche" viewBox="0 0 480 480">
        <g> <g> <path class="st0" d="M464,292.4V120v-8V64c0-22.1-17.9-40-40-40H194.2l-2.5-9.9c-0.9-3.6-4.1-6.1-7.8-6.1H72
			c-3.7,0-6.9,2.5-7.8,6.1L61.8,24H40C17.9,24,0,41.9,0,64v48v16v264c0,22.1,17.9,40,40,40h230.8c22,24.5,53.8,40,89.2,40
			c66.2,0,120-53.8,120-120C480,330.3,474.1,310,464,292.4z M424,40c13.2,0,24,10.8,24,24v16.2c-6.7-5.1-15-8.2-24-8.2H206.2l-8-32
			H424z M78.2,24h99.5l12,48H66.2L78.2,24z M16,64c0-13.2,10.8-24,24-24h17.8l-8,32H40c-9,0-17.3,3.1-24,8.2V64z M40,416
			c-13.2,0-24-10.8-24-24V128v-16c0-13.2,10.8-24,24-24h16h144h224c13.2,0,24,10.8,24,24v8v150.7C426.1,247,394.8,232,360,232
			c-31.4,0-59.9,12.2-81.3,32H184c-4.4,0-8,3.6-8,8v80c0,4.4,3.6,8,8,8h56.4c0.4,5.4,1,10.8,2,16H192v16h55c3,8.5,6.9,16.5,11.7,24
			H40z M240.4,344H192v-64h72.2C250.6,298.1,242,320.1,240.4,344z M275.6,291.4c11.5,6.5,23.6,11.6,36,15.2
			c-3.8,11.6-6.5,24.2-7.3,37.4h-48C257.9,324.5,264.8,306.4,275.6,291.4z M286.1,279c14.8-15,34.1-25.4,55.6-29.2
			c-7.4,10-16.7,24.5-24.3,41.9C306.6,288.6,296.1,284.4,286.1,279z M360,252.3c6.6,8.2,17.7,23.5,26.6,42.9c-17.6,3-35.6,3-53.2,0
			C342.3,275.8,353.4,260.5,360,252.3z M320.3,344c0.8-11.8,3.5-23.2,7.1-33.7c10.8,2.1,21.7,3.2,32.6,3.2s21.9-1.1,32.6-3.2
			c3.6,10.5,6.2,21.8,7.1,33.7H320.3z M399.7,360c-0.9,12.4-3.8,24.3-7.6,35.2c-21.2-4-43-4-64.2,0c-3.9-10.9-6.7-22.8-7.6-35.2
			H399.7z M378.3,249.7c21.5,3.9,40.8,14.3,55.6,29.2c-10,5.4-20.6,9.6-31.3,12.6C395.1,274.2,385.7,259.7,378.3,249.7z M256.4,360
			h48c0.8,13.8,3.7,26.9,7.8,38.9c-12.3,3.5-24.3,8.5-35.7,14.9C265.2,398.4,257.9,380,256.4,360z M287.2,426.1
			c9.9-5.2,20.3-9.3,30.9-12.3c7.4,16.8,16.4,30.7,23.6,40.4C320.6,450.5,301.8,440.5,287.2,426.1z M334.1,410.3
			c17.1-2.9,34.6-2.9,51.8,0c-8.7,18.7-19.4,33.4-25.9,41.4C353.5,443.7,342.8,429,334.1,410.3z M378.3,454.3
			c7.2-9.7,16.2-23.7,23.6-40.4c10.6,2.9,21,7,30.9,12.3C418.2,440.5,399.4,450.5,378.3,454.3z M443.5,413.7
			c-11.4-6.3-23.4-11.3-35.7-14.9c4.1-12,6.9-25.1,7.8-38.9h48C462.1,380,454.8,398.5,443.5,413.7z M415.6,344
			c-0.8-13.2-3.4-25.8-7.3-37.4c12.4-3.6,24.5-8.7,36-15.2c10.8,15,17.7,33.1,19.2,52.6L415.6,344L415.6,344z"/> </g> </g> <g> <g> <path class="st0" d="M144,112H48c-4.4,0-8,3.6-8,8v80c0,4.4,3.6,8,8,8h96c4.4,0,8-3.6,8-8v-80C152,115.6,148.4,112,144,112z
			 M136,192H56v-64h80V192z"/> </g> </g> <g> <g> <path class="st0" d="M280,112h-96c-4.4,0-8,3.6-8,8v80c0,4.4,3.6,8,8,8h96c4.4,0,8-3.6,8-8v-80C288,115.6,284.4,112,280,112z
			 M272,192h-80v-64h80V192z"/> </g> </g> <g> <g> <path class="st0" d="M416,112h-96c-4.4,0-8,3.6-8,8v80c0,4.4,3.6,8,8,8h96c4.4,0,8-3.6,8-8v-80C424,115.6,420.4,112,416,112z
			 M408,192h-80v-64h80V192z"/> </g> </g> <g> <g> <path class="st0" d="M144,264H48c-4.4,0-8,3.6-8,8v80c0,4.4,3.6,8,8,8h96c4.4,0,8-3.6,8-8v-80C152,267.6,148.4,264,144,264z
			 M136,344H56v-64h80V344z"/> </g> </g> <g> <g> <rect x="56" y="224" class="st0" width="80" height="16"/> </g> </g> <g> <g> <rect x="56" y="376" class="st0" width="80" height="16"/> </g> </g> <g> <g> <rect x="192" y="224" class="st0" width="80" height="16"/> </g> </g> <g> <g> <rect x="88" y="40" class="st0" width="16" height="16"/> </g> </g> <g> <g> <rect x="120" y="40" class="st0" width="16" height="16"/> </g> </g> <g> <g> <rect x="152" y="40" class="st0" width="16" height="16"/> </g> </g>
    </symbol>
    <symbol id="nuova_pratica" viewBox="0 0 390 390">
        <g> <path class="st0" d="M145.4,249l-2.8,26.2c-0.2,2.1,0.5,4.2,1.9,5.8c1.4,1.6,3.4,2.5,5.6,2.5h79.3c2.1,0,4.2-0.9,5.6-2.5
		c1.4-1.6,2.1-3.7,1.9-5.8l-2.8-26.2h98.8c15.4,0,27.9-12.5,27.9-27.9V27.9c0-15.4-12.5-27.9-27.9-27.9H40.6
		C25.3,0,12.7,12.5,12.7,27.9v193.2c0,15.4,12.5,27.9,27.9,27.9L145.4,249L145.4,249z M221.1,268.5h-62.6l2.1-19.5H219L221.1,268.5z
		 M40.6,15h292.2c7.1,0,12.9,5.8,12.9,12.9V198h-318V27.9C27.7,20.8,33.5,15,40.6,15z M27.7,221.1V213h318v8.1
		c0,7.1-5.8,12.9-12.9,12.9H40.6C33.5,234,27.7,228.2,27.7,221.1z"/> <path class="st0" d="M332.6,333.9c1.4-2.2,1.5-5,0.2-7.4L318.1,298c-1.3-2.5-3.9-4-6.7-4H62.1c-2.8,0-5.4,1.6-6.7,4l-14.8,28.5
		c-1.2,2.3-1.1,5.1,0.2,7.4s3.8,3.6,6.4,3.6h279C328.9,337.5,331.3,336.1,332.6,333.9z M59.6,322.5l7-13.5h240.3l7,13.5H59.6z"/> </g> <g>  <clipPath id="SVGID_2_"> <use xlink:href="#SVGID_1_" style="overflow:visible;"/> </clipPath> <g class="st1">  <clipPath id="SVGID_4_"> <use xlink:href="#SVGID_3_" style="overflow:visible;"/> </clipPath> <rect x="191.4" y="76.7" class="st2" width="94.4" height="94.4"/> </g> </g> <g>  <clipPath id="SVGID_6_"> <use xlink:href="#SVGID_5_" style="overflow:visible;"/> </clipPath> <g class="st3">  <clipPath id="SVGID_8_"> <use xlink:href="#SVGID_7_" style="overflow:visible;"/> </clipPath> <rect x="258.7" y="62" class="st4" width="94.4" height="94.4"/> </g> </g> <g>  <clipPath id="SVGID_10_"> <use xlink:href="#SVGID_9_" style="overflow:visible;"/> </clipPath> <g class="st5">  <clipPath id="SVGID_12_"> <use xlink:href="#SVGID_11_" style="overflow:visible;"/> </clipPath> <rect x="214.8" y="120.6" class="st6" width="79.7" height="79.7"/> </g> </g> <g>  <clipPath id="SVGID_14_"> <use xlink:href="#SVGID_13_" style="overflow:visible;"/> </clipPath> <g class="st7">  <clipPath id="SVGID_16_"> <use xlink:href="#SVGID_15_" style="overflow:visible;"/> </clipPath> <rect x="252.9" y="32.7" class="st8" width="79.7" height="79.7"/> </g> </g> <g>  <clipPath id="SVGID_18_"> <use xlink:href="#SVGID_17_" style="overflow:visible;"/> </clipPath> <g class="st9">  <clipPath id="SVGID_20_"> <use xlink:href="#SVGID_19_" style="overflow:visible;"/> </clipPath> <rect x="33.2" y="18.1" class="st10" width="56.3" height="56.3"/> </g> </g> <g>  <clipPath id="SVGID_22_"> <use xlink:href="#SVGID_21_" style="overflow:visible;"/> </clipPath> <g class="st11">  <clipPath id="SVGID_24_"> <use xlink:href="#SVGID_23_" style="overflow:visible;"/> </clipPath> <rect x="65.5" y="18.1" class="st12" width="56.3" height="56.3"/> </g> </g> <g>  <clipPath id="SVGID_26_"> <use xlink:href="#SVGID_25_" style="overflow:visible;"/> </clipPath> <g class="st13">  <clipPath id="SVGID_28_"> <use xlink:href="#SVGID_27_" style="overflow:visible;"/> </clipPath> <rect x="100.6" y="18.1" class="st14" width="56.3" height="56.3"/> </g> </g>
    </symbol>
</svg>